<?xml version="1.0" standalone="no"?>
<!DOCTYPE svg PUBLIC "-//W3C//DTD SVG 20010904//EN"
 "http://www.w3.org/TR/2001/REC-SVG-20010904/DTD/svg10.dtd">
<svg version="1.0" xmlns="http://www.w3.org/2000/svg"
 width="189.000000pt" height="172.000000pt" viewBox="0 0 189.000000 172.000000"
 preserveAspectRatio="xMidYMid meet">

<g transform="translate(0.000000,172.000000) scale(0.100000,-0.100000)"
fill="#000000" stroke="none">
<path d="M435 1621 l-70 -6 -5 -140 -5 -140 -65 -3 c-91 -4 -93 -8 -88 -124 3
-54 7 -101 10 -103 3 -3 36 -7 74 -8 l69 -3 -3 -164 c-4 -190 10 -283 54 -349
41 -63 63 -63 129 0 75 74 136 129 142 129 9 0 90 68 160 134 42 39 66 70 73
95 23 84 65 125 143 140 138 25 242 -71 223 -208 -8 -61 -39 -106 -90 -130
-91 -44 -194 -16 -250 69 -15 23 -32 40 -38 38 -6 -2 -30 -30 -52 -62 -23 -32
-56 -67 -74 -76 -19 -10 -62 -45 -96 -77 -35 -32 -82 -73 -104 -91 -89 -70
-49 -84 258 -90 211 -3 349 4 432 24 l27 6 3 -148 3 -149 111 -3 c81 -2 114 1
121 10 10 13 19 583 15 950 -2 219 2 211 -128 206 -81 -3 -96 -6 -118 -27
l-25 -23 -62 21 c-236 79 -489 -65 -554 -315 -8 -32 -16 -97 -16 -144 l-2 -85
-8 75 c-4 41 -7 227 -7 414 0 220 -4 342 -10 348 -14 14 -87 17 -177 9z m155
-446 c0 -309 3 -431 12 -450 12 -26 9 -30 -61 -98 l-73 -72 -23 29 c-44 55
-55 125 -55 344 l0 202 -75 0 -75 0 0 85 0 84 73 3 72 3 3 148 3 147 99 0 100
0 0 -425z m868 145 l52 0 0 -555 0 -555 -95 0 -96 0 7 165 c8 182 9 178 -54
147 -78 -39 -117 -43 -404 -40 -152 2 -279 6 -283 10 -7 7 55 68 220 216 l90
80 46 -43 c145 -136 372 -41 371 155 0 151 -144 253 -294 208 -46 -14 -123
-93 -133 -138 -4 -19 -38 -59 -98 -116 -100 -96 -98 -96 -111 2 -15 109 36
253 120 339 27 29 74 60 122 83 73 35 82 37 172 36 93 0 102 -3 213 -49 14 -6
17 -2 17 22 0 39 8 46 50 39 19 -3 59 -6 88 -6z"/>
</g>
</svg>
